<svg width="15" height="15" viewBox="0 0 15 15" fill="none" xmlns="http://www.w3.org/2000/svg">
<path d="M13.4179 0.969751C13.3769 0.9844 12.0293 2.31155 10.4238 3.91995L7.49998 6.84084L4.57908 3.91995C1.40037 0.744164 1.60251 0.928736 1.32712 0.98147C1.18357 1.00784 1.00779 1.18362 0.981421 1.32717C0.928687 1.60256 0.744116 1.40041 3.9199 4.5762L6.8408 7.50002L3.90525 10.4356C0.720679 13.626 0.89939 13.4268 0.949195 13.6992C0.975562 13.8369 1.16306 14.0244 1.30076 14.0508C1.57322 14.1006 1.374 14.2793 4.5615 11.0948L7.49998 8.1592L10.4355 11.0948C13.6289 14.2852 13.4267 14.1006 13.7021 14.0479C13.8457 14.0215 14.0215 13.8457 14.0478 13.7022C14.1006 13.4268 14.2851 13.6289 11.0947 10.4385L8.15916 7.50002L11.0947 4.56448C14.2763 1.37991 14.1006 1.57327 14.0508 1.30374C14.001 1.03713 13.6787 0.867212 13.4179 0.969751Z" fill="#282522"/>
</svg>
