<svg width="16" height="16" viewBox="0 0 16 16" fill="none" xmlns="http://www.w3.org/2000/svg">
<path fill-rule="evenodd" clip-rule="evenodd" d="M12.0009 8.00063C12.0009 8.13324 11.9482 8.26042 11.8544 8.35419C11.7607 8.44795 11.6335 8.50063 11.5009 8.50063H5.70789L7.85489 10.6466C7.90138 10.6931 7.93826 10.7483 7.96342 10.809C7.98858 10.8698 8.00152 10.9349 8.00152 11.0006C8.00152 11.0664 7.98858 11.1315 7.96342 11.1922C7.93826 11.253 7.90138 11.3081 7.85489 11.3546C7.80841 11.4011 7.75322 11.438 7.69248 11.4632C7.63174 11.4883 7.56664 11.5013 7.50089 11.5013C7.43515 11.5013 7.37005 11.4883 7.30931 11.4632C7.24857 11.438 7.19338 11.4011 7.14689 11.3546L4.14689 8.35463C4.10033 8.30819 4.06339 8.25301 4.03818 8.19227C4.01297 8.13152 4 8.0664 4 8.00063C4 7.93486 4.01297 7.86974 4.03818 7.809C4.06339 7.74825 4.10033 7.69308 4.14689 7.64663L7.14689 4.64663C7.24078 4.55275 7.36812 4.5 7.50089 4.5C7.63367 4.5 7.76101 4.55275 7.85489 4.64663C7.94878 4.74052 8.00152 4.86786 8.00152 5.00063C8.00152 5.13341 7.94878 5.26075 7.85489 5.35463L5.70789 7.50063H11.5009C11.6335 7.50063 11.7607 7.55331 11.8544 7.64708C11.9482 7.74085 12.0009 7.86802 12.0009 8.00063Z" fill="#282522"/>
</svg>
