<svg width="19" height="24" viewBox="0 0 19 24" fill="none" xmlns="http://www.w3.org/2000/svg">
<g clip-path="url(#clip0_150_178)">
<path d="M17.272 22.6661H1.72727C1.68273 22.6661 1.63865 22.6573 1.59771 22.6401C1.55676 22.6229 1.5198 22.5977 1.48908 22.566C1.45836 22.5343 1.43452 22.4968 1.41901 22.4558C1.40349 22.4148 1.39663 22.3711 1.39884 22.3274L2.13848 7.05276C2.14267 6.96999 2.17911 6.89197 2.24025 6.83488C2.3014 6.77778 2.38256 6.74599 2.46691 6.74609H16.5323C16.7088 6.74609 16.8526 6.87943 16.8608 7.05276L17.6018 22.3261C17.604 22.3699 17.5971 22.4137 17.5815 22.4548C17.5659 22.4959 17.5419 22.5335 17.5111 22.5652C17.4802 22.5969 17.4431 22.622 17.402 22.6392C17.3609 22.6563 17.3166 22.6663 17.272 22.6661ZM2.07198 22.0194H16.9273L16.2188 7.39276H2.78041L2.07198 22.0194Z" fill="white" stroke="white" stroke-width="0.8"/>
<path d="M13.0564 8.68732C12.9695 8.68697 12.8861 8.65286 12.8246 8.59242C12.7631 8.53199 12.7284 8.45012 12.728 8.36465V5.15132C12.7269 4.31073 12.3866 3.50487 11.7816 2.91049C11.1766 2.3161 10.3563 1.98171 9.50073 1.98065C8.64514 1.98171 7.82489 2.3161 7.21989 2.91049C6.61489 3.50487 6.27453 4.31073 6.27345 5.15132V8.36465C6.26808 8.44682 6.23106 8.52389 6.16994 8.58021C6.10881 8.63653 6.02815 8.66788 5.94434 8.66788C5.86054 8.66788 5.77988 8.63653 5.71875 8.58021C5.65762 8.52389 5.62061 8.44682 5.61523 8.36465V5.15132C5.61631 4.13922 6.02602 3.16888 6.75446 2.45322C7.4829 1.73757 8.47057 1.33504 9.50073 1.33398C10.5309 1.33504 11.5186 1.73757 12.247 2.45322C12.9754 3.16888 13.3852 4.13922 13.3862 5.15132V8.36465C13.3862 8.40702 13.3777 8.44898 13.3612 8.48813C13.3447 8.52728 13.3205 8.56285 13.29 8.59281C13.2595 8.62277 13.2233 8.64654 13.1835 8.66276C13.1436 8.67897 13.1009 8.68732 13.0578 8.68732H13.0564Z" fill="white" stroke="white" stroke-width="0.8"/>
</g>
<defs>
<clipPath id="clip0_150_178">
<rect width="19" height="24" fill="white"/>
</clipPath>
</defs>
</svg>
