<svg width="12" height="19" viewBox="0 0 12 19" fill="none" xmlns="http://www.w3.org/2000/svg">
<path d="M1.30439 0.037014C0.688379 0.155764 0.157715 0.697559 0.0389648 1.32842C-0.0129883 1.60303 -0.0129883 17.3894 0.0389648 17.664C0.161426 18.3097 0.688379 18.8366 1.33408 18.9591C1.60869 19.011 10.1216 19.011 10.3962 18.9591C11.0419 18.8366 11.5688 18.3097 11.6913 17.664C11.7433 17.3894 11.7433 1.60303 11.6913 1.32842C11.5688 0.682716 11.0419 0.155764 10.3962 0.0333023C10.1476 -0.0112286 1.54561 -0.0112286 1.30439 0.037014ZM10.3628 1.36182L10.4853 1.48057L10.4964 2.42686L10.5075 3.37315H5.86514H1.22275L1.23389 2.43057L1.24502 1.48428L1.35264 1.37295C1.41201 1.31358 1.49365 1.2542 1.53818 1.24678C1.579 1.23565 3.55693 1.23194 5.92822 1.23565L10.244 1.23936L10.3628 1.36182ZM10.5038 9.31065V13.9864H5.86514H1.22646V9.31065V4.63486H5.86514H10.5038V9.31065ZM10.4964 16.38L10.4853 17.5118L10.3628 17.6306L10.244 17.753H5.86514H1.48623L1.36748 17.6306L1.24502 17.5118L1.23389 16.38L1.22275 15.2481H5.86514H10.5075L10.4964 16.38Z" fill="#282522"/>
<path d="M4.121 2.31543V2.92773H5.86514H7.60928V2.31543V1.70312H5.86514H4.121V2.31543Z" fill="#282522"/>
<path d="M5.54972 15.802C5.03019 16.0432 4.97453 16.7557 5.44953 17.0859C5.59054 17.1824 5.6425 17.1973 5.86515 17.1973C6.08781 17.1973 6.13976 17.1824 6.28078 17.0859C6.76691 16.7482 6.69269 16.0135 6.15461 15.7871C5.96906 15.7129 5.73156 15.7166 5.54972 15.802Z" fill="#282522"/>
</svg>
