<svg width="30" height="30" viewBox="0 0 30 30" fill="none" xmlns="http://www.w3.org/2000/svg">
<g clip-path="url(#clip0_35_457)">
<path d="M0 15V30H15H30V15V0H15H0V15ZM29 15V29H15H1V15V1H15H29V15Z" fill="#282522"/>
<path d="M9.19336 5.36167C7.2832 5.74253 5.72461 7.3187 5.35547 9.24644C5.23242 9.88511 5.23242 20.1156 5.35547 20.7542C5.68945 22.5003 6.93164 23.9007 8.67188 24.5042L9.22852 24.6976L14.7656 24.7152C18.5508 24.7269 20.4199 24.7093 20.6719 24.6683C22.6465 24.3285 24.2637 22.7347 24.6445 20.7542C24.7676 20.1097 24.7676 9.88511 24.6445 9.24058C24.2695 7.28941 22.7051 5.73081 20.7539 5.35581C20.1445 5.23863 9.7793 5.24449 9.19336 5.36167ZM20.4023 7.44761C21.4453 7.66441 22.3359 8.55503 22.5527 9.598C22.6406 10.0316 22.6406 19.9691 22.5527 20.4027C22.3418 21.4164 21.5332 22.2601 20.502 22.5296C20.0332 22.6585 9.9668 22.6585 9.49805 22.5296C8.47266 22.2601 7.6582 21.4164 7.44727 20.4027C7.35938 19.9691 7.35938 10.0316 7.44727 9.598C7.6582 8.59019 8.50781 7.71128 9.50977 7.46519C9.91992 7.36558 19.9336 7.348 20.4023 7.44761Z" fill="#282522"/>
<path d="M19.6172 8.78776C19.2539 8.98112 18.9844 9.44401 18.9844 9.87174C18.9844 10.1178 19.2363 10.61 19.4355 10.7565C20.127 11.2604 21.0703 10.9616 21.3047 10.1589C21.4629 9.61393 21.2109 9.02799 20.7305 8.79362C20.3965 8.63541 19.916 8.63541 19.6172 8.78776Z" fill="#282522"/>
<path d="M14.3789 10.0195C12.7617 10.2187 11.2852 11.2675 10.5469 12.7441C10.1309 13.5703 10.0078 14.0918 10.0078 15C10.0078 15.9082 10.1309 16.4238 10.5469 17.2558C11.0332 18.2402 11.748 18.955 12.7441 19.4531C13.5527 19.8632 14.0918 19.9921 14.9707 19.998C16.5293 20.0039 17.8242 19.4062 18.8496 18.1992C19.2363 17.7539 19.7109 16.8222 19.8691 16.2011C20.0449 15.539 20.0449 14.4492 19.8691 13.7988C19.6289 12.8906 19.1543 12.0761 18.5098 11.4433C18.0234 10.9687 17.7246 10.7578 17.1445 10.4824C16.3008 10.0781 15.293 9.91402 14.3789 10.0195ZM16.248 12.4101C16.875 12.7207 17.3203 13.1718 17.625 13.8105C17.8418 14.2617 17.8418 14.2734 17.8418 15.0058V15.7382L17.5957 16.2421C17.0742 17.291 16.1484 17.8711 15 17.8711C14.1504 17.8711 13.5879 17.6367 12.9727 17.0273C12.3223 16.3711 12.0996 15.791 12.1406 14.8359C12.1582 14.3261 12.1816 14.2207 12.375 13.8105C12.6797 13.1718 13.1309 12.7148 13.7402 12.4218C14.3203 12.1406 14.3613 12.1347 15.1289 12.1523C15.7383 12.164 15.7793 12.1757 16.248 12.4101Z" fill="#282522"/>
</g>
<defs>
<clipPath id="clip0_35_457">
<rect width="30" height="30" fill="white"/>
</clipPath>
</defs>
</svg>
