<svg width="30" height="30" viewBox="0 0 30 30" fill="none" xmlns="http://www.w3.org/2000/svg">
<g clip-path="url(#clip0_35_453)">
<path d="M0 15V30H15H30V15V0H15H0V15ZM29 15V29H15H1V15V1H15H29V15Z" fill="#282522"/>
<path d="M12.2754 9.57422C12.0645 9.66797 11.6895 10.0723 11.7598 10.1367C11.7832 10.1602 11.9121 10.2129 12.041 10.2539C12.5801 10.4238 12.791 10.7402 12.8906 11.543C13.0137 12.5391 12.9258 14.0391 12.7207 14.5078C12.5977 14.7773 12.4277 14.8711 12.1641 14.8008C11.6953 14.6836 10.4942 12.8965 9.73243 11.1855C9.31056 10.248 9.24025 10.125 9.01759 9.99023C8.83009 9.87891 8.7129 9.87305 7.20704 9.87305C5.75978 9.87305 5.57228 9.88477 5.43165 9.97852C5.209 10.125 5.22658 10.3359 5.51954 11.0098C5.94142 11.9824 6.98439 13.998 7.55275 14.9414C8.57228 16.6348 9.33986 17.6602 10.2188 18.498C11.666 19.8867 13.2481 20.5078 15.3223 20.5078C16.2598 20.5078 16.5469 20.373 16.6055 19.8984C16.7578 18.6504 16.8809 18.252 17.168 18.0469C17.5078 17.8008 17.8242 17.9355 18.4336 18.5801C19.7813 19.998 19.8867 20.1035 20.2735 20.291L20.6543 20.4785L22.4824 20.4961L24.3106 20.5137L24.4922 20.3496C24.6211 20.2324 24.6856 20.1152 24.709 19.9395C24.7793 19.4004 24.252 18.6738 22.6699 17.1094C21.5391 15.9902 21.4688 15.8848 21.6094 15.4219C21.6504 15.2988 22.1309 14.5957 22.6817 13.8574C24.2402 11.7773 24.6445 11.0977 24.709 10.4648C24.7676 9.89648 24.5801 9.84375 22.3652 9.84375C20.5488 9.84375 20.3613 9.87305 20.209 10.1484C20.168 10.2188 19.9805 10.6289 19.7988 11.0508C19.2305 12.3691 18.6445 13.3477 17.9238 14.2148C17.332 14.9238 17.0274 14.9883 16.7461 14.4609C16.6172 14.2148 16.6113 14.1621 16.582 12.0586L16.5527 9.90234L16.3594 9.71484L16.1719 9.52148L14.3086 9.50977C12.8613 9.49805 12.4102 9.50977 12.2754 9.57422Z" fill="#282522"/>
</g>
<defs>
<clipPath id="clip0_35_453">
<rect width="30" height="30" fill="white"/>
</clipPath>
</defs>
</svg>
