<svg width="30" height="30" viewBox="0 0 30 30" fill="none" xmlns="http://www.w3.org/2000/svg">
<g clip-path="url(#clip0_35_449)">
<path d="M0 15V30H15H30V15V0H15H0V15ZM29 15V29H15H1V15V1H15H29V15Z" fill="#282522"/>
<path d="M14.7949 10.1067C8.36718 12.591 5.44921 13.7453 5.3789 13.8332C5.23241 14.009 5.24413 14.3196 5.40819 14.4895C5.49608 14.5891 6.19921 14.8762 7.79296 15.4739C9.03515 15.9309 10.0664 16.3352 10.084 16.3645C10.1016 16.3938 10.5058 17.6711 10.9805 19.2063C11.918 22.2414 11.9297 22.2649 12.3398 22.2649C12.5449 22.2649 12.7383 22.1184 14.8711 20.3782C15.2988 20.0266 15.3867 19.9797 15.6035 19.9797C15.75 19.9797 15.9316 20.0324 16.0547 20.1028C16.166 20.1731 17.25 20.9465 18.4629 21.8313C19.6699 22.7102 20.7305 23.4485 20.8125 23.466C21.0176 23.5188 21.293 23.3664 21.375 23.1614C21.4629 22.9446 24.7266 7.21799 24.7266 7.01878C24.7266 6.8137 24.5039 6.5676 24.2871 6.53245C24.1523 6.51487 21.8672 7.3762 14.7949 10.1067ZM20.5547 10.136C20.5605 10.1887 19.043 11.636 16.8281 13.6985C14.0449 16.2824 13.0488 17.2434 12.9551 17.425C12.873 17.6008 12.791 18.0051 12.6855 18.7492C12.5976 19.4114 12.5098 19.8449 12.4687 19.8742C12.3281 19.9563 12.1875 19.9211 12.1289 19.7864C12.0117 19.5051 11.1328 16.3 11.1328 16.1477C11.1328 15.9543 11.25 15.7141 11.4258 15.5559C11.6836 15.3157 20.3086 10.0305 20.4199 10.0364C20.4844 10.0422 20.543 10.0891 20.5547 10.136Z" fill="#282522"/>
</g>
<defs>
<clipPath id="clip0_35_449">
<rect width="30" height="30" fill="white"/>
</clipPath>
</defs>
</svg>
