<svg width="30" height="30" viewBox="0 0 30 30" fill="none" xmlns="http://www.w3.org/2000/svg">
<g clip-path="url(#clip0_35_463)">
<path d="M0 15V30H15H30V15V0H15H0V15ZM29 15V29H15H1V15V1H15H29V15Z" fill="#282522"/>
<path d="M13.6756 5.36098C9.83767 5.92348 6.68532 8.74184 5.71267 12.4801C5.51345 13.2536 5.44899 13.6754 5.41384 14.5895C5.34353 16.1657 5.67751 17.7477 6.38649 19.1715L6.6736 19.7516L5.99392 22.2125C5.62478 23.5661 5.33181 24.6911 5.34938 24.7028C5.3611 24.7145 6.50368 24.4274 7.88649 24.0641L10.4002 23.402L10.9275 23.6481C12.2166 24.2457 13.2537 24.486 14.7361 24.5329C15.8494 24.568 16.5115 24.4977 17.4607 24.2575C20.9822 23.3551 23.7185 20.4723 24.492 16.8454C24.656 16.0954 24.7146 14.4665 24.6091 13.693C24.1873 10.4704 22.2068 7.71059 19.2947 6.25161C18.8318 6.01723 17.8767 5.66567 17.3728 5.54262C16.3064 5.27895 14.7654 5.20278 13.6756 5.36098ZM16.1892 6.97817C18.6677 7.34731 20.7654 8.78872 22.0252 10.986C22.781 12.3043 23.156 14.0094 23.0271 15.5153C22.9627 16.2594 22.9334 16.4235 22.7576 17.0504C22.1951 19.1012 20.8474 20.8239 18.9549 21.9079C16.5877 23.2672 13.4119 23.2555 11.0681 21.8844C10.8748 21.7731 10.6814 21.6793 10.6345 21.6793C10.5877 21.6793 9.90212 21.8493 9.10524 22.0602C8.30837 22.2653 7.64626 22.4352 7.6404 22.4235C7.63454 22.4176 7.81032 21.7555 8.03298 20.9469L8.43142 19.4879L8.22634 19.154C6.28102 15.9489 6.73806 11.9293 9.34548 9.29262C10.5525 8.07387 11.9881 7.31801 13.7107 7.00747C14.2498 6.90786 15.6209 6.89028 16.1892 6.97817Z" fill="#282522"/>
<path d="M11.3909 10.4886C11.2913 10.5237 11.0921 10.6643 10.9515 10.8108C9.92609 11.8479 9.87336 13.2366 10.7991 14.7659C11.7718 16.3655 13.4652 18.012 14.8597 18.7151C16.1722 19.3714 17.2796 19.6526 18.0179 19.5179C18.803 19.3772 19.6468 18.7737 19.805 18.2464C19.9222 17.8479 19.9456 17.2972 19.8577 17.1858C19.7347 17.0335 17.8714 16.1604 17.6077 16.1311C17.3792 16.1018 17.3675 16.1077 17.0687 16.5061C16.5999 17.1155 16.3714 17.344 16.2191 17.344C15.9905 17.344 14.9359 16.7815 14.3851 16.3597C13.6234 15.7796 12.6566 14.5901 12.6566 14.2268C12.6566 14.1272 12.7503 13.9632 12.9261 13.7581C13.2249 13.4124 13.4183 13.0726 13.4183 12.8909C13.4183 12.8265 13.2542 12.387 13.0609 11.9124C12.6448 10.9163 12.5218 10.6526 12.4105 10.5647C12.305 10.4768 11.6077 10.4241 11.3909 10.4886Z" fill="#282522"/>
</g>
<defs>
<clipPath id="clip0_35_463">
<rect width="30" height="30" fill="white"/>
</clipPath>
</defs>
</svg>
