<svg width="19" height="15" viewBox="0 0 19 15" fill="none" xmlns="http://www.w3.org/2000/svg">
<path d="M0 7.5V14.6992H9.5H19V7.5V0.300779H9.5H0V7.5ZM16.8254 1.6293C16.7029 1.74433 15.0107 3.35117 13.0662 5.19922C11.1217 7.04726 9.51855 8.55762 9.5 8.55762C9.48516 8.55762 7.8709 7.03613 5.91895 5.18066C3.96328 3.32148 2.27109 1.71836 2.15605 1.61074L1.94824 1.41777H9.5H17.0518L16.8254 1.6293ZM4.08203 4.97656C5.37715 6.20859 6.43848 7.22539 6.43848 7.24023C6.43848 7.26621 1.37305 12.5135 1.19121 12.673L1.11328 12.7436V7.44062V2.13769L1.42129 2.44199C1.58828 2.60527 2.78691 3.74824 4.08203 4.97656ZM17.8793 10.0828L17.8682 12.7473L15.2148 10.0086C13.7564 8.50195 12.5615 7.25879 12.5615 7.24394C12.5615 7.2291 13.7564 6.08242 15.2148 4.69453L17.8682 2.17109L17.8793 4.79473C17.883 6.23828 17.883 8.61699 17.8793 10.0828ZM8.38301 9.05859C8.98418 9.63008 9.48887 10.0977 9.5 10.0977C9.51484 10.0977 10.0158 9.63379 10.6133 9.06601C11.2107 8.50195 11.7117 8.03808 11.7266 8.03808C11.7451 8.03808 12.9623 9.28125 14.4318 10.8027L17.1111 13.5674L13.3037 13.5785C11.2107 13.5822 7.78926 13.5822 5.69629 13.5785L1.88887 13.5674L4.57188 10.7953C6.04883 9.27012 7.2623 8.02324 7.27344 8.02324C7.28457 8.02324 7.78184 8.48711 8.38301 9.05859Z" fill="#282522"/>
</svg>
