<svg width="19" height="24" viewBox="0 0 19 24" fill="none" xmlns="http://www.w3.org/2000/svg">
<g clip-path="url(#clip0_35_349)">
<path d="M17.2724 22.6671H1.72764C1.6831 22.6671 1.63902 22.6583 1.59807 22.6411C1.55713 22.6239 1.52017 22.5987 1.48945 22.567C1.45873 22.5353 1.43489 22.4978 1.41937 22.4568C1.40386 22.4158 1.397 22.3721 1.39921 22.3284L2.13885 7.05374C2.14303 6.97096 2.17947 6.89295 2.24062 6.83585C2.30176 6.77876 2.38292 6.74697 2.46728 6.74707H16.5327C16.7091 6.74707 16.853 6.8804 16.8611 7.05374L17.6021 22.3271C17.6044 22.3709 17.5974 22.4147 17.5819 22.4558C17.5663 22.4969 17.5423 22.5344 17.5114 22.5661C17.4806 22.5978 17.4434 22.623 17.4023 22.6401C17.3612 22.6573 17.317 22.6673 17.2724 22.6671ZM2.07235 22.0204H16.9276L16.2192 7.39374H2.78078L2.07235 22.0204Z" fill="#282522" stroke="#282522" stroke-width="0.8"/>
<path d="M13.0557 8.68634C12.9687 8.68599 12.8854 8.65188 12.8239 8.59145C12.7624 8.53101 12.7276 8.44914 12.7273 8.36367V5.15034C12.7262 4.30975 12.3858 3.5039 11.7808 2.90951C11.1758 2.31512 10.3556 1.98073 9.5 1.97967C8.6444 1.98073 7.82416 2.31512 7.21916 2.90951C6.61416 3.5039 6.27379 4.30975 6.27272 5.15034V8.36367C6.26734 8.44584 6.23033 8.52291 6.1692 8.57923C6.10807 8.63555 6.02741 8.6669 5.94361 8.6669C5.8598 8.6669 5.77914 8.63555 5.71802 8.57923C5.65689 8.52291 5.61988 8.44584 5.6145 8.36367V5.15034C5.61558 4.13825 6.02529 3.16791 6.75373 2.45225C7.48217 1.73659 8.46983 1.33407 9.5 1.33301C10.5302 1.33407 11.5178 1.73659 12.2463 2.45225C12.9747 3.16791 13.3844 4.13825 13.3855 5.15034V8.36367C13.3855 8.40605 13.377 8.44801 13.3605 8.48715C13.344 8.5263 13.3198 8.56187 13.2893 8.59183C13.2588 8.6218 13.2226 8.64556 13.1828 8.66178C13.1429 8.67799 13.1002 8.68634 13.0571 8.68634H13.0557Z" fill="#282522" stroke="#282522" stroke-width="0.8"/>
</g>
<defs>
<clipPath id="clip0_35_349">
<rect width="19" height="24" fill="white"/>
</clipPath>
</defs>
</svg>
