<svg width="27" height="24" viewBox="0 0 27 24" fill="none" xmlns="http://www.w3.org/2000/svg">
<g clip-path="url(#clip0_35_345)">
<path d="M24.108 2.91659C23.4951 2.29814 22.7674 1.80754 21.9665 1.47282C21.1655 1.1381 20.307 0.96582 19.44 0.96582C18.5731 0.96582 17.7146 1.1381 16.9136 1.47282C16.1127 1.80754 15.385 2.29814 14.772 2.91659L13.5 4.1995L12.228 2.91659C10.99 1.66795 9.31089 0.966468 7.56005 0.966468C5.80921 0.966468 4.13008 1.66795 2.89205 2.91659C1.65401 4.16524 0.958496 5.85876 0.958496 7.62461C0.958496 9.39046 1.65401 11.084 2.89205 12.3326L4.16405 13.6155L13.5 22.9953L22.8 13.6155L24.072 12.3326C24.6852 11.7145 25.1717 10.9805 25.5035 10.1727C25.8354 9.36488 26.0062 8.49903 26.0062 7.62461C26.0062 6.75019 25.8354 5.88434 25.5035 5.07653C25.1717 4.26871 24.6852 3.53475 24.072 2.91659H24.108Z" stroke="#282522" stroke-width="1.6" stroke-linecap="round" stroke-linejoin="round"/>
</g>
<defs>
<clipPath id="clip0_35_345">
<rect width="27" height="24" fill="white"/>
</clipPath>
</defs>
</svg>
