<svg width="50" height="50" viewBox="0 0 50 50" fill="none" xmlns="http://www.w3.org/2000/svg">
<g clip-path="url(#clip0_35_387)">
<path d="M11.8945 0.106937C10.2637 0.30225 8.33984 0.937016 6.875 1.76709C3.08594 3.94483 0.585938 7.73389 0.107422 12.0405C-0.0390625 13.3394 -0.0390625 36.6597 0.107422 37.9585C0.800781 44.2378 5.76172 49.1987 12.041 49.8921C13.3398 50.0386 36.6602 50.0386 37.959 49.8921C44.2383 49.1987 49.1992 44.2378 49.8926 37.9585C50.0391 36.6597 50.0391 13.3394 49.8926 12.0405C49.1992 5.76123 44.2383 0.800297 37.959 0.106937C36.8066 -0.0200157 13.0176 -0.0200157 11.8945 0.106937ZM38.9746 3.2417C41.0059 3.79834 42.5684 4.68702 43.9356 6.06397C45.3125 7.43116 46.2012 8.99366 46.7676 11.0249L47.0215 11.9624V24.9995V38.0366L46.7676 38.9741C46.2012 41.0054 45.3125 42.5679 43.9356 43.9351C42.5684 45.312 41.0059 46.2007 38.9746 46.7671L38.0371 47.021H25H11.9629L11.0254 46.7671C8.99414 46.2007 7.43164 45.312 6.06445 43.9351C4.6875 42.5679 3.79883 41.0054 3.23242 38.9741L2.97852 38.0366V24.9995V11.9624L3.23242 11.0249C3.79883 8.99366 4.6875 7.43116 6.05469 6.06397C7.67578 4.44287 9.81445 3.36866 12.0605 3.03662C12.3828 2.9878 18.3594 2.9585 25.3418 2.96827L38.0371 2.97803L38.9746 3.2417Z" fill="white"/>
<path d="M38.5253 6.5124C36.1425 6.84443 34.5214 9.15888 35.0976 11.405C35.498 12.9968 36.5136 14.0026 38.0957 14.4128C40.7812 15.0964 43.4179 12.6647 42.9687 9.9206C42.7246 8.3874 41.6015 7.09833 40.1367 6.65888C39.707 6.53193 38.916 6.46357 38.5253 6.5124ZM39.6191 9.62763C40.1464 9.95966 40.2343 10.7702 39.7949 11.2292C39.4335 11.6003 38.9941 11.6882 38.5449 11.4733C37.8613 11.1511 37.7148 10.2526 38.2617 9.74482C38.6621 9.36396 39.1308 9.3249 39.6191 9.62763Z" fill="white"/>
<path d="M23.1154 11.4736C17.715 12.2158 13.1544 16.2783 11.7775 21.6006C10.5665 26.2588 11.9239 31.1807 15.3712 34.6279C20.7423 39.999 29.2579 39.999 34.629 34.6279C40.0001 29.2568 40.0001 20.7412 34.629 15.3701C31.5431 12.2939 27.4122 10.8877 23.1154 11.4736ZM26.5626 14.4033C28.9064 14.7549 30.8986 15.7607 32.5685 17.4307C36.7775 21.6299 36.7775 28.3682 32.5685 32.5674C28.3693 36.7764 21.631 36.7764 17.4318 32.5674C13.2228 28.3682 13.2228 21.6299 17.4318 17.4307C19.8634 14.999 23.2032 13.8857 26.5626 14.4033Z" fill="white"/>
</g>
<defs>
<clipPath id="clip0_35_387">
<rect width="50" height="50" fill="white"/>
</clipPath>
</defs>
</svg>
