<svg width="8" height="8" viewBox="0 0 8 8" fill="none" xmlns="http://www.w3.org/2000/svg">
<g clip-path="url(#clip0_160_141)">
<path d="M2.09811 0.337695C1.38092 0.393945 0.738731 0.804882 0.341856 1.46426C-0.128457 2.24863 -0.101894 3.26426 0.419981 4.3127C0.859043 5.19395 1.58873 6.01738 2.62154 6.79551C3.13717 7.18457 3.89967 7.66113 4.00436 7.66113C4.10748 7.66113 4.86998 7.18613 5.37154 6.80801C6.41217 6.0252 7.14811 5.19551 7.58873 4.3127C8.00123 3.48457 8.10904 2.66113 7.89342 1.97832C7.65748 1.22207 7.06061 0.623632 6.34029 0.414257C5.97154 0.308007 5.55123 0.314257 5.16061 0.431445C4.76373 0.551757 4.31061 0.862695 4.08248 1.17051C4.04342 1.22207 4.00904 1.26426 4.00436 1.26426C3.99967 1.26426 3.96529 1.22207 3.92623 1.17051C3.69811 0.862695 3.24498 0.551757 2.84811 0.431445C2.62467 0.364257 2.29498 0.323632 2.09811 0.337695ZM2.55123 0.63457C2.71061 0.662694 2.91998 0.731445 3.05436 0.798632C3.34342 0.942382 3.64186 1.20644 3.80904 1.46113C3.91686 1.62832 3.93092 1.64082 4.00436 1.64082C4.07779 1.64082 4.09186 1.62832 4.19967 1.46113C4.36529 1.20644 4.66686 0.94082 4.94967 0.800195C5.37467 0.589257 5.89654 0.54707 6.33248 0.687695C6.49654 0.74082 6.73561 0.867382 6.88092 0.975195C7.44654 1.40176 7.76998 2.09395 7.73248 2.79707C7.69654 3.45488 7.48561 4.05176 7.05904 4.70332C6.56529 5.45801 5.72623 6.26113 4.73092 6.93145C4.48404 7.09863 4.02936 7.3752 4.00436 7.3752C3.97936 7.3752 3.52467 7.09863 3.27779 6.93145C2.13248 6.16113 1.21842 5.23457 0.744981 4.36738C0.327793 3.60332 0.176231 2.80176 0.334043 2.18144C0.487168 1.57519 0.893418 1.05644 1.41842 0.79707C1.79342 0.612695 2.13873 0.562695 2.55123 0.63457Z" fill="#767370"/>
</g>
<defs>
<clipPath id="clip0_160_141">
<rect width="8" height="8" fill="white"/>
</clipPath>
</defs>
</svg>
