<svg width="10" height="10" viewBox="0 0 10 10" fill="none" xmlns="http://www.w3.org/2000/svg">
<g clip-path="url(#clip0_156_1816)">
<path d="M8.9466 0.646664C8.91925 0.656429 8.02082 1.54119 6.9505 2.61346L5.00129 4.56073L3.05402 2.61346C0.93488 0.496273 1.06965 0.61932 0.886052 0.654476C0.790348 0.672054 0.673161 0.789242 0.655583 0.884945C0.620427 1.06854 0.49738 0.933773 2.61457 3.05096L4.56183 5.00018L2.6048 6.95721C0.481755 9.08416 0.600895 8.95135 0.634098 9.13299C0.651677 9.22479 0.776677 9.34979 0.868473 9.36737C1.05011 9.40057 0.917302 9.51971 3.0423 7.39666L5.00129 5.43963L6.95832 7.39666C9.08722 9.52362 8.95246 9.40057 9.13605 9.36541C9.23175 9.34784 9.34894 9.23065 9.36652 9.13494C9.40168 8.95135 9.52472 9.08612 7.39777 6.95916L5.44074 5.00018L7.39777 3.04315C9.51886 0.920101 9.40168 1.04901 9.36847 0.86932C9.33527 0.691586 9.12043 0.578304 8.9466 0.646664Z" fill="#767370"/>
</g>
<defs>
<clipPath id="clip0_156_1816">
<rect width="10" height="10" fill="white"/>
</clipPath>
</defs>
</svg>
