<svg width="18" height="22" viewBox="0 0 18 22" fill="none" xmlns="http://www.w3.org/2000/svg">
<path d="M16.674 21.0001H1.3247C1.28072 21.0001 1.2372 20.9919 1.19676 20.9757C1.15633 20.9596 1.11984 20.936 1.08951 20.9063C1.05917 20.8766 1.03563 20.8414 1.02031 20.803C1.00499 20.7645 0.998218 20.7236 1.0004 20.6826L1.73074 6.36269C1.73487 6.28509 1.77085 6.21195 1.83123 6.15843C1.89161 6.1049 1.97175 6.0751 2.05504 6.0752H15.9436C16.1178 6.0752 16.2599 6.20019 16.2679 6.36269L16.9996 20.6813C17.0018 20.7224 16.995 20.7635 16.9796 20.802C16.9642 20.8405 16.9405 20.8757 16.91 20.9055C16.8796 20.9352 16.8429 20.9588 16.8023 20.9748C16.7617 20.9909 16.718 21.0003 16.674 21.0001ZM1.66508 20.3938H16.3336L15.6341 6.68144H2.3646L1.66508 20.3938Z" fill="#282522" stroke="#282522" stroke-width="0.5"/>
<path d="M12.5098 7.8937C12.4239 7.89337 12.3416 7.8614 12.2808 7.80474C12.2201 7.74808 12.1858 7.67133 12.1855 7.5912V4.57873C12.1844 3.79068 11.8483 3.03519 11.2509 2.47796C10.6535 1.92073 9.8436 1.60724 8.99875 1.60625C8.15391 1.60724 7.34398 1.92073 6.74659 2.47796C6.14919 3.03519 5.81311 3.79068 5.81205 4.57873V7.5912C5.80674 7.66823 5.7702 7.74049 5.70984 7.79329C5.64948 7.84609 5.56983 7.87548 5.48708 7.87548C5.40433 7.87548 5.32468 7.84609 5.26432 7.79329C5.20396 7.74049 5.16742 7.66823 5.16211 7.5912V4.57873C5.16317 3.62989 5.56773 2.72021 6.28701 2.04928C7.00629 1.37835 7.98154 1.00099 8.99875 1C10.016 1.00099 10.9912 1.37835 11.7105 2.04928C12.4298 2.72021 12.8343 3.62989 12.8354 4.57873V7.5912C12.8354 7.63093 12.827 7.67026 12.8107 7.70696C12.7944 7.74367 12.7705 7.77701 12.7404 7.8051C12.7103 7.83319 12.6746 7.85547 12.6352 7.87068C12.5959 7.88588 12.5537 7.8937 12.5111 7.8937H12.5098Z" fill="#282522" stroke="#282522" stroke-width="0.4"/>
</svg>
