<svg width="23" height="20" viewBox="0 0 23 20" fill="none" xmlns="http://www.w3.org/2000/svg">
<path d="M19.737 2.43033C19.2352 1.91495 18.6394 1.50612 17.9837 1.22719C17.3279 0.948255 16.6251 0.804687 15.9153 0.804688C15.2055 0.804687 14.5026 0.948255 13.8469 1.22719C13.1911 1.50612 12.5953 1.91495 12.0935 2.43033L11.0521 3.49942L10.0107 2.43033C8.99712 1.38979 7.62239 0.805227 6.18896 0.805227C4.75552 0.805227 3.38079 1.38979 2.3672 2.43033C1.35361 3.47087 0.78418 4.88214 0.78418 6.35368C0.78418 7.82522 1.35361 9.23649 2.3672 10.277L3.40861 11.3461L11.0521 19.1626L18.6662 11.3461L19.7076 10.277C20.2096 9.76189 20.6078 9.15027 20.8795 8.47708C21.1513 7.8039 21.2911 7.08236 21.2911 6.35368C21.2911 5.625 21.1513 4.90346 20.8795 4.23028C20.6078 3.55709 20.2096 2.94547 19.7076 2.43033H19.737Z" stroke="#282522" stroke-linecap="round" stroke-linejoin="round"/>
</svg>
