<svg width="19" height="24" viewBox="0 0 19 24" fill="none" xmlns="http://www.w3.org/2000/svg">
<path d="M17.2725 22.6661H1.72776C1.68322 22.6661 1.63914 22.6573 1.5982 22.6401C1.55725 22.6229 1.52029 22.5977 1.48957 22.566C1.45885 22.5343 1.43501 22.4968 1.4195 22.4558C1.40398 22.4148 1.39712 22.3711 1.39933 22.3274L2.13897 7.05276C2.14316 6.96999 2.1796 6.89197 2.24074 6.83488C2.30189 6.77778 2.38305 6.74599 2.4674 6.74609H16.5328C16.7093 6.74609 16.8531 6.87943 16.8613 7.05276L17.6023 22.3261C17.6045 22.3699 17.5976 22.4137 17.582 22.4548C17.5664 22.4959 17.5424 22.5335 17.5115 22.5652C17.4807 22.5969 17.4436 22.622 17.4025 22.6392C17.3614 22.6563 17.3171 22.6663 17.2725 22.6661ZM2.07247 22.0194H16.9278L16.2193 7.39276H2.7809L2.07247 22.0194Z" fill="#282522" stroke="#282522" stroke-width="0.8"/>
<path d="M13.0555 8.68536C12.9685 8.68501 12.8851 8.65091 12.8236 8.59047C12.7621 8.53003 12.7274 8.44817 12.727 8.3627V5.14936C12.726 4.30878 12.3856 3.50292 11.7806 2.90853C11.1756 2.31415 10.3554 1.97976 9.49976 1.9787C8.64416 1.97976 7.82391 2.31415 7.21891 2.90853C6.61391 3.50292 6.27355 4.30878 6.27247 5.14936V8.3627C6.2671 8.44486 6.23009 8.52193 6.16896 8.57826C6.10783 8.63458 6.02717 8.66592 5.94336 8.66592C5.85956 8.66592 5.7789 8.63458 5.71777 8.57826C5.65664 8.52193 5.61963 8.44486 5.61426 8.3627V5.14936C5.61534 4.13727 6.02505 3.16693 6.75348 2.45127C7.48192 1.73561 8.46959 1.33309 9.49976 1.33203C10.5299 1.33309 11.5176 1.73561 12.246 2.45127C12.9745 3.16693 13.3842 4.13727 13.3853 5.14936V8.3627C13.3853 8.40507 13.3768 8.44703 13.3603 8.48618C13.3438 8.52532 13.3196 8.56089 13.2891 8.59086C13.2586 8.62082 13.2224 8.64459 13.1825 8.6608C13.1427 8.67702 13.1 8.68536 13.0568 8.68536H13.0555Z" fill="#282522" stroke="#282522" stroke-width="0.8"/>
</svg>
