<svg width="24" height="24" viewBox="0 0 24 24" fill="none" xmlns="http://www.w3.org/2000/svg">
<path d="M6.28071 1.01211C4.12914 1.18086 2.20258 2.41367 1.01196 4.39179C-0.398981 6.74492 -0.319293 9.79179 1.24633 12.9371C2.56352 15.5809 4.75258 18.0512 7.85102 20.3855C9.3979 21.5527 11.6854 22.9824 11.9995 22.9824C12.3088 22.9824 14.5963 21.5574 16.101 20.423C19.2229 18.0746 21.4307 15.5855 22.7526 12.9371C23.9901 10.4527 24.3135 7.98242 23.6666 5.93398C22.9588 3.66523 21.1682 1.86992 19.0073 1.24179C17.901 0.923044 16.6401 0.941793 15.4682 1.29336C14.2776 1.65429 12.9182 2.58711 12.2338 3.51054C12.1166 3.66523 12.0135 3.79179 11.9995 3.79179C11.9854 3.79179 11.8823 3.66523 11.7651 3.51054C11.0807 2.58711 9.72133 1.65429 8.53071 1.29336C7.86039 1.09179 6.87133 0.969919 6.28071 1.01211ZM7.64008 1.90273C8.11821 1.98711 8.74633 2.19336 9.14946 2.39492C10.0166 2.82617 10.912 3.61836 11.4135 4.38242C11.737 4.88398 11.7791 4.92148 11.9995 4.92148C12.2198 4.92148 12.262 4.88398 12.5854 4.38242C13.0823 3.61836 13.987 2.82148 14.8354 2.39961C16.1104 1.76679 17.676 1.64023 18.9838 2.06211C19.476 2.22148 20.1932 2.60117 20.6291 2.92461C22.326 4.20429 23.2963 6.28086 23.1838 8.39023C23.076 10.3637 22.4432 12.1543 21.1635 14.109C19.6823 16.373 17.1651 18.7824 14.1791 20.7934C13.4385 21.2949 12.0745 22.1246 11.9995 22.1246C11.9245 22.1246 10.5604 21.2949 9.81977 20.7934C6.38383 18.4824 3.64164 15.7027 2.22133 13.1012C0.969769 10.809 0.515082 8.40429 0.988519 6.54336C1.44789 4.72461 2.66664 3.16836 4.24164 2.39023C5.36664 1.83711 6.40258 1.68711 7.64008 1.90273Z" fill="#767370"/>
</svg>
